# xmcd
# Track frame offsets:
# 150
# 13167
# 32567
# 49075
# 63640
# 78855
# 99330
# 127212
# 144075
# 163012
#
# Disc length: 2521 seconds
# Revision: 0
# Processed by: cddbd v1.4PL0 Copyright (c) Steve Scherf et al.
# Submitted via: VisiTrax 2.9.5.180 - For more info visit www.synapsa.com
#
DISCID=7e09d70a
DTITLE=David Allen Coe - Living on the Edge
DYEAR=1900
DGENRE=
TTITLE0=Talkin To The Blues
TTITLE1=You Take My Breath Away
TTITLE2=Until Hell Freezes Over
TTITLE3=Trouble In Paradise
TTITLE4=Living On The Edge
TTITLE5=I Need To Go Down
TTITLE6=In My Mind
TTITLE7=That Little Girl Of Mine
TTITLE8=The Telephone
TTITLE9=Anymore
EXTD=
EXTT0=
EXTT1=
EXTT2=
EXTT3=
EXTT4=
EXTT5=
EXTT6=
EXTT7=
EXTT8=
EXTT9=
PLAYORDER=
